<svg width="300" height="200" viewBox="0 0 300 200" fill="none" xmlns="http://www.w3.org/2000/svg">
  <defs>
    <linearGradient id="boardGradient" x1="0%" y1="0%" x2="100%" y2="100%">
      <stop offset="0%" style="stop-color:#667eea;stop-opacity:0.1" />
      <stop offset="100%" style="stop-color:#764ba2;stop-opacity:0.1" />
    </linearGradient>
    <linearGradient id="shapeGradient" x1="0%" y1="0%" x2="100%" y2="100%">
      <stop offset="0%" style="stop-color:#667eea;stop-opacity:0.8" />
      <stop offset="100%" style="stop-color:#764ba2;stop-opacity:0.8" />
    </linearGradient>
  </defs>
  
  <!-- Main board/canvas -->
  <rect x="20" y="20" width="260" height="160" rx="12" fill="url(#boardGradient)" stroke="#667eea" stroke-width="2" stroke-dasharray="5,5"/>
  
  <!-- Grid pattern -->
  <g opacity="0.3">
    <line x1="40" y1="40" x2="260" y2="40" stroke="#667eea" stroke-width="1"/>
    <line x1="40" y1="80" x2="260" y2="80" stroke="#667eea" stroke-width="1"/>
    <line x1="40" y1="120" x2="260" y2="120" stroke="#667eea" stroke-width="1"/>
    <line x1="40" y1="160" x2="260" y2="160" stroke="#667eea" stroke-width="1"/>
    <line x1="80" y1="40" x2="80" y2="160" stroke="#667eea" stroke-width="1"/>
    <line x1="120" y1="40" x2="120" y2="160" stroke="#667eea" stroke-width="1"/>
    <line x1="160" y1="40" x2="160" y2="160" stroke="#667eea" stroke-width="1"/>
    <line x1="200" y1="40" x2="200" y2="160" stroke="#667eea" stroke-width="1"/>
    <line x1="240" y1="40" x2="240" y2="160" stroke="#667eea" stroke-width="1"/>
  </g>
  
  <!-- Sample shapes -->
  <rect x="60" y="60" width="40" height="30" rx="4" fill="url(#shapeGradient)" opacity="0.8"/>
  <circle cx="180" cy="70" r="15" fill="url(#shapeGradient)" opacity="0.8"/>
  <polygon points="220,100 240,80 260,100 240,120" fill="url(#shapeGradient)" opacity="0.8"/>
  
  <!-- Cursor indicators -->
  <circle cx="100" cy="120" r="3" fill="#10B981"/>
  <circle cx="200" cy="140" r="3" fill="#F59E0B"/>
  <circle cx="150" cy="90" r="3" fill="#EF4444"/>
  
  <!-- Connection lines -->
  <line x1="100" y1="120" x2="200" y2="140" stroke="#667eea" stroke-width="1" opacity="0.6" stroke-dasharray="3,3"/>
  <line x1="200" y1="140" x2="150" y2="90" stroke="#667eea" stroke-width="1" opacity="0.6" stroke-dasharray="3,3"/>
  <line x1="150" y1="90" x2="100" y2="120" stroke="#667eea" stroke-width="1" opacity="0.6" stroke-dasharray="3,3"/>
  
  <!-- Floating elements -->
  <circle cx="50" cy="30" r="8" fill="#667eea" opacity="0.6"/>
  <circle cx="250" cy="50" r="6" fill="#764ba2" opacity="0.6"/>
  <circle cx="270" cy="150" r="10" fill="#10B981" opacity="0.6"/>
</svg> 